# xmcd
#
# Track frame offsets:
#	150
#	12473
#	24408
#	36015
#	47684
#	62347
#	77656
#	94923
#
# Disc length: 1412 seconds
#
# Revision: 2
# Processed by: cddbd v1.4PL0 Copyright (c) Steve Scherf et al.
# Submitted via: EasyCDDAExtractor 6.2.0.3
#
DISCID=56058208
DTITLE=Blind Lemons - Booze Breakers
DYEAR=1900
DGENRE=Blues
TTITLE0=I feel good
TTITLE1=City Man
TTITLE2=Evil
TTITLE3=Don't start me talkin'
TTITLE4=Automatic
TTITLE5=Checkin' on my baby
TTITLE6=You gotta help me
TTITLE7=She loves my automobile
EXTD=
EXTT0=
EXTT1=
EXTT2=
EXTT3=
EXTT4=
EXTT5=
EXTT6=
EXTT7=
PLAYORDER=
